<svg xmlns="http://www.w3.org/2000/svg" viewBox="0 0 50 48.75"><defs><style>.cls-1{fill:#cbd5e1;}</style></defs><g id="Layer_2" data-name="Layer 2"><g id="Layer_1-2" data-name="Layer 1"><path class="cls-1" d="M24.68,0A24.17,24.17,0,0,0,0,24.6,25.28,25.28,0,0,0,17.09,48.71c1.29.23,1.74-.56,1.74-1.22s0-4.07,0-6.19c0,0-7.06,1.51-8.54-3,0,0-1.15-2.94-2.8-3.69,0,0-2.31-1.59.16-1.56a5.34,5.34,0,0,1,3.89,2.61c2.21,3.89,5.91,2.77,7.35,2.1a5.65,5.65,0,0,1,1.61-3.4c-5.63-.62-11.32-1.44-11.32-11.13a7.64,7.64,0,0,1,2.38-5.94,9.55,9.55,0,0,1,.26-6.85c2.11-.65,7,2.73,7,2.73a23.73,23.73,0,0,1,12.66,0s4.85-3.39,7-2.73a9.55,9.55,0,0,1,.26,6.85c1.61,1.78,2.6,3.17,2.6,5.94,0,9.72-5.94,10.5-11.57,11.13A6,6,0,0,1,31.37,39c0,3.4,0,7.6,0,8.43,0,.66.46,1.45,1.74,1.22A25,25,0,0,0,50,24.6C50,10.61,38.66,0,24.68,0Z"/></g></g></svg>