<svg xmlns="http://www.w3.org/2000/svg" viewBox="0 0 48.75 48.75"><defs><style>.cls-1{fill:#cbd5e1;}</style></defs><g id="Layer_2" data-name="Layer 2"><g id="Layer_1-2" data-name="Layer 1"><path class="cls-1" d="M45.27,0H3.47A3.5,3.5,0,0,0,0,3.51V45.24a3.5,3.5,0,0,0,3.47,3.51h41.8a3.51,3.51,0,0,0,3.48-3.51V3.51A3.51,3.51,0,0,0,45.27,0ZM14.73,41.79H7.51V18.52h7.23V41.79ZM11.12,15.34a4.19,4.19,0,1,1,4.19-4.19A4.19,4.19,0,0,1,11.12,15.34Zm30.7,26.45H34.59V30.47c0-2.7-.05-6.17-3.75-6.17s-4.34,2.94-4.34,6V41.79H19.27V18.52H26.2V21.7h.1a7.62,7.62,0,0,1,6.85-3.76c7.31,0,8.67,4.82,8.67,11.09Z"/></g></g></svg>