<?xml version="1.0" encoding="utf-8"?>
<!-- Generator: Adobe Illustrator 25.2.1, SVG Export Plug-In . SVG Version: 6.00 Build 0)  -->
<svg version="1.1" id="Layer_1" xmlns="http://www.w3.org/2000/svg" xmlns:xlink="http://www.w3.org/1999/xlink" x="0px" y="0px"
	 viewBox="0 0 50 39.8" style="enable-background:new 0 0 50 39.8;" xml:space="preserve">
<style type="text/css">
	.st0{fill:#5EEAD4;}
</style>
<g id="Layer_2_1_">
	<g id="Layer_1-2">
		<path class="st0" d="M29,15.1c0-2-1.4-3.1-3.8-3.1h-4.5v6.3h3.8C27.4,18.4,29,17.2,29,15.1z M45.4,13.9c-0.7-2.8-1-5.8-0.9-8.7
			c0.1-2.8-2-5.1-4.8-5.2c0,0,0,0-0.1,0H10.4C7.6,0.1,5.4,2.4,5.5,5.1c0,0,0,0,0,0.1c0.2,2.9-0.1,5.9-0.9,8.7
			c-0.8,2.8-2.3,4.5-4.6,4.7v2.5c2.3,0.2,3.8,2,4.6,4.7c0.7,2.8,1,5.8,0.9,8.7c-0.1,2.8,2,5.1,4.8,5.2c0,0,0.1,0,0.1,0h29.2
			c2.8-0.1,4.9-2.4,4.9-5.1c0,0,0-0.1,0-0.1c-0.2-2.9,0.1-5.9,0.9-8.7c0.9-2.8,2.3-4.5,4.6-4.7v-2.5C47.7,18.4,46.2,16.7,45.4,13.9z
			 M26.1,30.5h-8.7V9.3H26c3.9,0,6.4,2.1,6.4,5.3c0,2.3-1.6,4.2-3.9,4.6v0.1c2.8,0.1,5,2.4,4.9,5.2C33.5,28.3,30.7,30.5,26.1,30.5z
			 M25.2,20.9h-4.5v7h4.6c3,0,4.6-1.2,4.6-3.5S28.4,20.9,25.2,20.9z"/>
	</g>
</g>
</svg>
