<?xml version="1.0" encoding="utf-8"?>
<!-- Generator: Adobe Illustrator 25.2.1, SVG Export Plug-In . SVG Version: 6.00 Build 0)  -->
<svg version="1.1" id="Layer_1" xmlns="http://www.w3.org/2000/svg" xmlns:xlink="http://www.w3.org/1999/xlink" x="0px" y="0px"
	 viewBox="0 0 50 48.8" style="enable-background:new 0 0 50 48.8;" xml:space="preserve">
<style type="text/css">
	.st0{fill:#5EEAD4;}
</style>
<g id="Layer_2_1_">
	<g id="Layer_1-2">
		<path class="st0" d="M16.7,39.2c0,0.2-0.2,0.4-0.5,0.4s-0.6-0.1-0.6-0.4s0.2-0.4,0.5-0.4C16.4,38.9,16.7,39,16.7,39.2z M13.6,38.8
			c-0.1,0.2,0.1,0.4,0.4,0.5c0.2,0.1,0.5,0,0.6-0.2c0.1-0.2-0.1-0.4-0.4-0.5C14,38.5,13.7,38.6,13.6,38.8z M18,38.6
			c-0.3,0.1-0.5,0.3-0.5,0.5s0.3,0.3,0.6,0.3s0.5-0.3,0.5-0.5S18.3,38.6,18,38.6z M24.7,0C11.3-0.3,0.3,10.3,0,23.7
			c0,0.3,0,0.6,0,0.9c-0.1,10.9,6.8,20.6,17.1,24.1c1.3,0.2,1.7-0.6,1.7-1.2s0-4.1,0-6.2c0,0-7.1,1.5-8.5-3c0,0-1.1-2.9-2.8-3.7
			c0,0-2.3-1.6,0.2-1.6c1.6,0.2,3.1,1.2,3.9,2.6c2.2,3.9,5.9,2.8,7.3,2.1c0.1-1.3,0.7-2.5,1.6-3.4c-5.6-0.6-11.3-1.4-11.3-11.1
			c-0.1-2.2,0.8-4.4,2.4-5.9c-0.8-2.2-0.7-4.7,0.3-6.9c2.1-0.6,7,2.7,7,2.7c4.1-1.1,8.5-1.1,12.7,0c0,0,4.8-3.4,7-2.7
			c0.9,2.2,1,4.6,0.3,6.9c1.6,1.8,2.6,3.2,2.6,5.9c0,9.7-5.9,10.5-11.6,11.1c1.2,1.2,1.8,2.9,1.6,4.6c0,3.4,0,7.6,0,8.4
			c0,0.7,0.5,1.5,1.7,1.2C43.4,45.1,50.2,35.4,50,24.6C50,10.6,38.7,0,24.7,0z M9.8,34.8c-0.1,0.1-0.1,0.3,0.1,0.5s0.4,0.2,0.5,0.1
			s0.1-0.3-0.1-0.5S9.9,34.6,9.8,34.8z M8.7,34c-0.1,0.1,0,0.3,0.2,0.4c0.1,0.1,0.3,0.1,0.4,0c0,0,0,0,0,0c0.1-0.1,0-0.3-0.2-0.4
			S8.8,33.8,8.7,34z M12,37.5c-0.2,0.1-0.1,0.4,0.1,0.6s0.5,0.3,0.6,0.1s0.1-0.4-0.1-0.6S12.1,37.4,12,37.5z M10.9,36.1
			c-0.2,0.1-0.2,0.4,0,0.6s0.4,0.3,0.6,0.2c0.2-0.2,0.2-0.5,0-0.6C11.3,36,11,35.9,10.9,36.1z"/>
	</g>
</g>
</svg>
