<?xml version="1.0" encoding="utf-8"?>
<!-- Generator: Adobe Illustrator 25.2.1, SVG Export Plug-In . SVG Version: 6.00 Build 0)  -->
<svg version="1.1" id="Layer_1" xmlns="http://www.w3.org/2000/svg" xmlns:xlink="http://www.w3.org/1999/xlink" x="0px" y="0px"
	 viewBox="0 0 50 50" style="enable-background:new 0 0 50 50;" xml:space="preserve">
<style type="text/css">
	.st0{fill:#5EEAD4;}
</style>
<g id="Layer_2_1_">
	<g id="Layer_1-2">
		<path class="st0" d="M0,0v50h50V0H0z M27.2,39c0,4.9-2.9,7.1-7,7.1c-3,0.1-5.8-1.6-7-4.3l3.8-2.3c0.7,1.3,1.4,2.4,3,2.4
			s2.5-0.6,2.5-3V23h4.7L27.2,39L27.2,39z M38.3,46.1c-4.4,0-7.2-2.1-8.6-4.8l3.8-2.2c0.9,1.8,2.7,2.9,4.6,2.9c1.9,0,3.2-1,3.2-2.3
			c0-1.6-1.3-2.2-3.4-3.1L36.8,36c-3.4-1.4-5.6-3.3-5.6-7.1c0-3.5,2.7-6.2,6.9-6.2c2.8-0.2,5.4,1.3,6.7,3.8l-3.7,2.3
			c-0.5-1.2-1.7-2-3-2c-1.1-0.1-2.1,0.6-2.2,1.7c0,0.1,0,0.2,0,0.3c0,1.4,0.9,2,2.9,2.9l1.2,0.5c4,1.7,6.2,3.5,6.2,7.4
			C46.1,43.8,42.8,46.1,38.3,46.1L38.3,46.1z"/>
	</g>
</g>
</svg>
