<?xml version="1.0" encoding="utf-8"?>
<!-- Generator: Adobe Illustrator 25.2.1, SVG Export Plug-In . SVG Version: 6.00 Build 0)  -->
<svg version="1.1" id="Layer_1" xmlns="http://www.w3.org/2000/svg" xmlns:xlink="http://www.w3.org/1999/xlink" x="0px" y="0px"
	 viewBox="0 0 50 43.8" style="enable-background:new 0 0 50 43.8;" xml:space="preserve">
<style type="text/css">
	.st0{fill:#5EEAD4;}
</style>
<g id="Layer_2_1_">
	<g id="Layer_1-2">
		<path class="st0" d="M40.8,14.2c-0.5-0.2-1-0.3-1.6-0.5c0.1-0.4,0.2-0.7,0.2-1.1c1.2-5.8,0.4-10.5-2.2-12s-6.8,0-11,3.8
			c-0.4,0.4-0.8,0.7-1.2,1.1c-0.3-0.3-0.5-0.5-0.8-0.8c-4.4-4-8.9-5.7-11.6-4.1S9.3,6.5,10.4,12c0.1,0.6,0.2,1.1,0.4,1.6
			C10.1,13.8,9.5,14,9,14.2c-5.2,1.8-9,4.7-9,7.6s4,6.1,9.4,8c0.4,0.1,0.9,0.3,1.3,0.4c-0.1,0.6-0.3,1.2-0.4,1.8
			c-1,5.4-0.2,9.7,2.3,11.2s7.1,0,11.4-3.8c0.3-0.3,0.7-0.6,1-0.9c0.4,0.4,0.9,0.8,1.3,1.2c4.2,3.6,8.3,5,10.9,3.6s3.6-6.2,2.5-11.8
			c-0.1-0.4-0.2-0.9-0.3-1.3l0.9-0.3c5.6-1.8,9.7-4.9,9.7-8C50,18.9,46.2,16,40.8,14.2z M27.6,5.9c3.6-3.2,7-4.4,8.6-3.5
			s2.3,4.8,1.2,9.8c-0.1,0.3-0.1,0.6-0.2,1c-2.2-0.5-4.4-0.8-6.6-1C29.4,10.4,28,8.6,26.5,7C26.9,6.6,27.2,6.2,27.6,5.9z M16.3,26.9
			c0.5,0.9,1,1.7,1.5,2.5c-1.5-0.2-3-0.4-4.5-0.7c0.4-1.4,1-2.9,1.6-4.4C15.4,25.2,15.8,26,16.3,26.9z M13.3,15.1
			c1.4-0.3,2.9-0.6,4.5-0.8c-0.5,0.8-1,1.6-1.5,2.5s-1,1.7-1.4,2.5C14.3,17.9,13.8,16.5,13.3,15.1z M16,21.9c0.7-1.3,1.4-2.7,2.1-4
			c0.8-1.3,1.5-2.6,2.4-3.8C22,14,23.5,14,25,14s3,0.1,4.5,0.2c0.8,1.2,1.6,2.5,2.4,3.7c0.8,1.3,1.5,2.6,2.1,3.9
			c-0.7,1.3-1.4,2.7-2.1,4c-0.8,1.3-1.5,2.6-2.4,3.8c-1.5,0.1-3,0.1-4.5,0.1s-3,0-4.5-0.1c-0.9-1.2-1.7-2.5-2.4-3.8
			C17.4,24.6,16.7,23.2,16,21.9L16,21.9z M33.6,26.9c0.5-0.9,1-1.7,1.4-2.6c0.6,1.4,1.2,2.9,1.7,4.3c-1.5,0.3-3,0.6-4.6,0.8
			C32.7,28.6,33.2,27.7,33.6,26.9L33.6,26.9z M35,19.4c-0.5-0.9-0.9-1.7-1.4-2.6s-1-1.6-1.5-2.5c1.6,0.2,3.1,0.5,4.5,0.8
			C36.2,16.6,35.7,18,35,19.4L35,19.4z M25,8.4c1,1.1,2,2.3,2.9,3.5c-1.9-0.1-3.9-0.1-5.8,0C23.1,10.7,24,9.5,25,8.4z M13.7,2.4
			c1.6-1,5.3,0.4,9.1,3.8c0.2,0.2,0.5,0.4,0.7,0.7c-1.5,1.6-2.9,3.4-4.2,5.2c-2.2,0.2-4.4,0.5-6.6,1c-0.1-0.5-0.2-1-0.3-1.5
			C11.5,6.9,12.1,3.3,13.7,2.4L13.7,2.4z M11.3,28.2c-0.4-0.1-0.8-0.2-1.2-0.4c-2.2-0.6-4.3-1.7-6.2-3c-1-0.7-1.7-1.7-1.8-2.9
			c0-1.8,3.1-4.1,7.5-5.6c0.6-0.2,1.1-0.4,1.7-0.5c0.7,2.1,1.5,4.2,2.4,6.2C12.8,23.9,12,26,11.3,28.2z M22.7,37.8
			c-1.6,1.5-3.5,2.6-5.5,3.5c-1.1,0.5-2.3,0.6-3.4,0.1c-1.6-0.9-2.2-4.3-1.3-9c0.1-0.5,0.2-1.1,0.4-1.6c2.2,0.5,4.4,0.8,6.6,1
			c1.3,1.8,2.7,3.6,4.2,5.2C23.3,37.2,23,37.5,22.7,37.8L22.7,37.8z M25.1,35.4c-1.1-1.1-2.1-2.3-3-3.5c0.9,0,1.9,0.1,2.9,0.1
			c1,0,2,0,3-0.1C27.1,33.1,26.1,34.2,25.1,35.4z M37.8,38.3c-0.1,1.2-0.7,2.3-1.6,3.1c-1.5,0.9-4.9-0.3-8.4-3.3
			c-0.4-0.4-0.8-0.7-1.2-1.1c1.5-1.6,2.9-3.4,4.1-5.2c2.2-0.2,4.5-0.5,6.7-1c0.1,0.4,0.2,0.8,0.3,1.2C38.1,34,38.2,36.2,37.8,38.3
			L37.8,38.3z M39.6,27.8l-0.8,0.3c-0.7-2.1-1.5-4.2-2.5-6.2c0.9-2,1.7-4,2.4-6.1c0.5,0.1,1,0.3,1.5,0.5c4.5,1.6,7.7,3.9,7.7,5.7
			S44.5,26.2,39.6,27.8z M25,26.4c2.5,0,4.5-2,4.5-4.5c0-2.5-2-4.5-4.5-4.5s-4.5,2-4.5,4.5c0,0,0,0,0,0C20.5,24.3,22.5,26.3,25,26.4
			z"/>
	</g>
</g>
</svg>
