<?xml version="1.0" encoding="utf-8"?>
<!-- Generator: Adobe Illustrator 25.2.1, SVG Export Plug-In . SVG Version: 6.00 Build 0)  -->
<svg version="1.1" id="Layer_1" xmlns="http://www.w3.org/2000/svg" xmlns:xlink="http://www.w3.org/1999/xlink" x="0px" y="0px"
	 viewBox="0 0 50 30" style="enable-background:new 0 0 50 30;" xml:space="preserve">
<style type="text/css">
	.st0{fill-rule:evenodd;clip-rule:evenodd;fill:#5EEAD4;}
</style>
<g id="Layer_2_1_">
	<g id="Layer_1-2">
		<path class="st0" d="M25,0c-6.7,0-10.8,3.3-12.5,10c2.5-3.3,5.4-4.6,8.8-3.8c1.9,0.5,3.3,1.9,4.8,3.4c2.4,2.5,5.3,5.4,11.5,5.4
			c6.7,0,10.8-3.3,12.5-10c-2.5,3.3-5.4,4.6-8.8,3.8c-1.9-0.5-3.3-1.9-4.8-3.4C34,2.9,31.2,0,25,0z M12.5,15C5.8,15,1.7,18.3,0,25
			c2.5-3.3,5.4-4.6,8.8-3.8c1.9,0.5,3.3,1.9,4.8,3.4C16,27.1,18.8,30,25,30c6.7,0,10.8-3.3,12.5-10c-2.5,3.3-5.4,4.6-8.8,3.8
			c-1.9-0.5-3.3-1.9-4.8-3.4C21.5,17.9,18.7,15,12.5,15z"/>
	</g>
</g>
</svg>
