<svg xmlns="http://www.w3.org/2000/svg" xmlns:xlink="http://www.w3.org/1999/xlink" viewBox="0 0 50 39.85"><defs><style>.cls-1{fill:#fff;}.cls-2{fill:url(#linear-gradient);}</style><linearGradient id="linear-gradient" y1="19.92" x2="50" y2="19.92" gradientUnits="userSpaceOnUse"><stop offset="0" stop-color="#5c4696"/><stop offset="0.64" stop-color="#574696"/><stop offset="1" stop-color="#514696"/></linearGradient></defs><g id="Layer_2" data-name="Layer 2"><g id="Layer_1-2" data-name="Layer 1"><rect class="cls-1" x="12.94" y="8.1" width="25.36" height="25.36"/><path class="cls-2" d="M29.05,15.07c0-2-1.39-3.05-3.83-3.05H20.74v6.33h3.78C27.44,18.35,29.05,17.17,29.05,15.07Zm16.32-1.14A28,28,0,0,1,44.5,5.2,5,5,0,0,0,39.64,0H10.38A5,5,0,0,0,5.52,5.2a28.32,28.32,0,0,1-.88,8.73c-.85,2.76-2.28,4.5-4.64,4.73v2.53c2.35.22,3.79,2,4.64,4.73a28,28,0,0,1,.88,8.72,5,5,0,0,0,4.86,5.21H39.63a5,5,0,0,0,4.86-5.21,28.27,28.27,0,0,1,.87-8.72c.86-2.76,2.29-4.51,4.64-4.73V18.66C47.66,18.43,46.22,16.69,45.37,13.93ZM26.09,30.52H17.38V9.32H26c3.85,0,6.38,2.09,6.38,5.29a4.73,4.73,0,0,1-3.87,4.61v.11a5.16,5.16,0,0,1,4.94,5.19C33.49,28.27,30.7,30.52,26.09,30.52Zm-.89-9.67H20.74v7h4.65c3,0,4.65-1.22,4.65-3.52S28.39,20.85,25.2,20.85Z"/></g></g></svg>