<svg xmlns="http://www.w3.org/2000/svg" xmlns:xlink="http://www.w3.org/1999/xlink" viewBox="0 0 42.86 50"><defs><style>.cls-1{fill:#0671b9;}.cls-2{fill:#2ca9e0;}.cls-3{fill:#eaeaea;}.cls-4{fill:url(#linear-gradient);}.cls-5{fill:#fff;}.cls-6{fill:url(#linear-gradient-2);}</style><linearGradient id="linear-gradient" x1="11.04" y1="25.67" x2="21.78" y2="19.42" gradientUnits="userSpaceOnUse"><stop offset="0.17" stop-color="#fff"/><stop offset="1" stop-color="#d1d1d1"/></linearGradient><linearGradient id="linear-gradient-2" x1="22.56" y1="17.58" x2="33.78" y2="12.98" gradientUnits="userSpaceOnUse"><stop offset="0" stop-color="#fff"/><stop offset="0.23" stop-color="#fafafa"/><stop offset="0.5" stop-color="#ebebeb"/><stop offset="0.8" stop-color="#d3d3d3"/><stop offset="1" stop-color="#bfbfbf"/></linearGradient></defs><g id="Layer_2" data-name="Layer 2"><g id="Layer_1-2" data-name="Layer 1"><polygon class="cls-1" points="0 0 3.9 44.17 21.37 50 38.96 44.17 42.86 0 0 0"/><polygon class="cls-2" points="21.49 4.11 38.54 4.11 35.26 41.31 21.43 45.89 21.49 4.11"/><polygon class="cls-3" points="21.51 34.43 15.64 32.94 15.28 28.67 9.82 28.67 10.54 36.92 21.56 40.17 32.52 36.97 33.95 20.61 21.51 20.61 21.54 20.6 34.41 15.1 34.94 9.82 7.92 9.82 8.56 15.1 22.28 15.1 21.55 15.4 9.04 20.61 9.45 25.78 9.47 25.77 9.47 25.78 28.02 25.84 27.61 32.71 21.51 34.43"/><polygon class="cls-3" points="7.92 9.82 8.56 15.1 21.47 15.1 21.48 9.82 7.92 9.82"/><polygon class="cls-4" points="9.04 20.61 9.45 25.78 9.47 25.77 9.47 25.78 21.46 25.82 21.47 15.44 9.04 20.61"/><polygon class="cls-3" points="21.44 34.41 15.64 32.94 15.28 28.67 9.82 28.67 10.54 36.92 21.44 40.14 21.44 34.41"/><polygon class="cls-5" points="21.56 40.17 32.52 36.97 33.95 20.61 21.51 20.61 21.54 20.6 34.41 15.1 34.94 9.82 21.48 9.82 21.47 15.1 22.28 15.1 21.55 15.4 21.47 15.44 21.46 25.82 28.02 25.84 27.61 32.71 21.51 34.43 21.44 34.41 21.44 40.14 21.56 40.17"/><polygon class="cls-6" points="22.28 15.1 34.41 15.1 22.28 20.29 22.28 15.1"/><polygon class="cls-3" points="9.04 20.61 21.51 20.61 21.46 25.82 9.47 25.77 9.04 20.61"/></g></g></svg>