<svg xmlns="http://www.w3.org/2000/svg" viewBox="0 0 36.1 50"><defs><style>.cls-1{fill:#f6a31f;}.cls-2{fill:#f08214;}.cls-3{fill:#fec92b;}.cls-4{fill:#f7a520;}</style></defs><g id="Layer_2" data-name="Layer 2"><g id="Layer_1-2" data-name="Layer 1"><path class="cls-1" d="M23.71,18.06l-5,4.65-4.64-9.36L16.46,8c.61-1.08,1.6-1.08,2.21,0Z"/><polygon class="cls-2" points="18.7 22.71 0 40.11 14.06 13.35 18.7 22.71"/><path class="cls-3" d="M29.18,10.94c.89-.86,1.82-.57,2.05.65L36.1,39.88,20,49.55A7.74,7.74,0,0,1,17.9,50,7.54,7.54,0,0,1,16,49.54L0,40.11Z"/><path class="cls-4" d="M14.06,13.35,0,40.11,6.26,1C6.49-.22,7.19-.34,7.8.74Z"/></g></g></svg>