<svg xmlns="http://www.w3.org/2000/svg" viewBox="0 0 42.86 50"><defs><style>.cls-1{fill:#e44d27;}.cls-2{fill:#ec652b;}.cls-3{fill:#ebebeb;}.cls-4{fill:#fff;}</style></defs><g id="Layer_2" data-name="Layer 2"><g id="Layer_1-2" data-name="Layer 1"><polygon class="cls-1" points="0 0 3.9 44.17 21.37 50 38.96 44.17 42.86 0 0 0"/><polygon class="cls-2" points="21.43 4 38.49 4 35.21 41.2 21.38 45.78 21.43 4"/><polygon class="cls-3" points="14.34 19.79 13.88 14.28 21.42 14.28 21.43 8.95 7.98 8.95 9.41 25.2 21.41 25.2 21.41 19.79 14.34 19.79"/><polygon class="cls-3" points="21.39 33.76 21.37 33.76 15.4 32.14 15.01 27.89 9.69 27.89 10.36 36.35 21.37 39.4 21.39 39.4 21.39 33.76"/><polygon class="cls-4" points="34.4 14.28 34.89 8.95 21.43 8.95 21.42 14.28 34.4 14.28"/><polygon class="cls-4" points="21.5 39.4 21.5 39.36 32.42 36.35 33.94 19.79 21.41 19.79 21.41 25.2 28.04 25.2 27.37 32.14 21.39 33.76 21.39 39.4 21.5 39.4"/></g></g></svg>