<svg xmlns="http://www.w3.org/2000/svg" viewBox="0 0 44.33 50"><defs><style>.cls-1{fill:#679f63;}</style></defs><g id="Layer_2" data-name="Layer 2"><g id="Layer_1-2" data-name="Layer 1"><path class="cls-1" d="M22.15,50a3.84,3.84,0,0,1-1.92-.52l-6.12-3.62c-.92-.52-.47-.7-.17-.8a11.57,11.57,0,0,0,2.77-1.26.48.48,0,0,1,.45,0l4.71,2.79a.56.56,0,0,0,.56,0L40.75,36.06a.59.59,0,0,0,.28-.5V14.41a.6.6,0,0,0-.29-.51L22.43,3.34a.56.56,0,0,0-.56,0L3.56,13.91a.58.58,0,0,0-.29.51V35.56a.55.55,0,0,0,.29.49l5,2.89c2.73,1.36,4.4-.23,4.4-1.85V16.22a.52.52,0,0,1,.53-.53h2.32a.54.54,0,0,1,.54.53V37.1c0,3.63-2,5.71-5.43,5.71a7.78,7.78,0,0,1-4.21-1.15L1.92,38.89A3.84,3.84,0,0,1,0,35.55V14.41a3.85,3.85,0,0,1,1.92-3.34L20.23.49a4,4,0,0,1,3.85,0L42.4,11.08a3.85,3.85,0,0,1,1.93,3.34V35.56A3.88,3.88,0,0,1,42.4,38.9L24.08,49.48A3.85,3.85,0,0,1,22.15,50ZM36.94,29.15c0-4-2.67-5-8.3-5.75s-6.27-1.14-6.27-2.47c0-1.1.49-2.57,4.7-2.57,3.76,0,5.15.81,5.73,3.35a.53.53,0,0,0,.51.42h2.38a.52.52,0,0,0,.39-.17.56.56,0,0,0,.14-.41c-.37-4.37-3.27-6.41-9.15-6.41-5.22,0-8.34,2.21-8.34,5.91,0,4,3.11,5.12,8.12,5.61,6,.59,6.46,1.47,6.46,2.65,0,2-1.64,2.92-5.5,2.92-4.85,0-5.92-1.22-6.27-3.63a.53.53,0,0,0-.53-.45H18.64a.52.52,0,0,0-.52.53c0,3.08,1.67,6.76,9.7,6.76,5.79,0,9.12-2.3,9.12-6.29Z"/></g></g></svg>