<svg xmlns="http://www.w3.org/2000/svg" viewBox="0 0 54.95 54.95"><defs><style>.cls-1{fill:#ed6b3e;}</style></defs><g id="Layer_2" data-name="Layer 2"><g id="Layer_1-2" data-name="Layer 1"><path class="cls-1" d="M42.43,50.52A27.46,27.46,0,0,0,48,9.21L24.55,32.65Zm3.16-29.64a2,2,0,0,1,2.8.39c2.51,3.32,2.33,10.13-.32,12.79a2,2,0,1,1-2.83-2.83c1.07-1.06,1.43-5.6,0-7.54A2,2,0,0,1,45.59,20.88Z"/><path class="cls-1" d="M20.31,34.06a2,2,0,0,1,0-2.83L45.12,6.42A27.47,27.47,0,1,0,27.48,55a27.33,27.33,0,0,0,11.29-2.43Z"/></g></g></svg>