<svg xmlns="http://www.w3.org/2000/svg" viewBox="0 0 54.95 54.95"><defs><style>.cls-1{fill:#212121;}.cls-2{fill:#74cbed;}</style></defs><g id="Layer_2" data-name="Layer 2"><g id="Layer_1-2" data-name="Layer 1"><circle class="cls-1" cx="27.48" cy="27.48" r="27.48"/><path class="cls-2" d="M40.6,21c-.44-.15-.88-.28-1.32-.41.07-.3.14-.6.2-.9,1-4.84.34-8.72-1.87-10s-5.61,0-9.13,3.11c-.35.3-.69.62-1,.93-.22-.21-.44-.42-.67-.62-3.69-3.28-7.39-4.66-9.6-3.37s-2.76,4.89-1.87,9.47q.13.67.3,1.35c-.52.15-1,.31-1.51.48C9.78,22.58,6.68,25,6.68,27.4S10,32.47,14.49,34l1.1.35c-.12.48-.23,1-.32,1.46-.86,4.5-.19,8.07,1.93,9.29s5.88,0,9.46-3.17c.28-.25.57-.51.85-.79.36.35.73.69,1.11,1,3.47,3,6.9,4.19,9,3s2.91-5.1,2-9.77c-.07-.36-.15-.73-.24-1.1l.76-.23C44.81,32.48,48.2,30,48.2,27.4S45,22.56,40.6,21Zm-11-6.89c3-2.62,5.83-3.65,7.11-2.92s1.9,4,1,8.15q-.08.4-.18.81a40.52,40.52,0,0,0-5.46-.86A42.11,42.11,0,0,0,28.67,15ZM20.24,31.61c.41.7.83,1.41,1.28,2.1a36.36,36.36,0,0,1-3.76-.61,35.42,35.42,0,0,1,1.32-3.61c.37.72.75,1.42,1.16,2.12Zm-2.46-9.76c1.17-.26,2.41-.47,3.7-.63-.43.67-.85,1.36-1.25,2.06s-.79,1.39-1.15,2.11c-.51-1.21-.94-2.4-1.3-3.54ZM20,27.44c.54-1.12,1.12-2.21,1.74-3.29S23,22,23.72,21c1.21-.09,2.45-.14,3.72-.14s2.51,0,3.72.14c.69,1,1.35,2.07,2,3.14s1.21,2.17,1.76,3.28c-.54,1.12-1.12,2.22-1.75,3.31s-1.27,2.12-2,3.16C30,34,28.71,34,27.44,34s-2.51,0-3.7-.11c-.7-1-1.37-2.09-2-3.17s-1.2-2.17-1.75-3.29Zm14.65,4.15c.41-.71.8-1.43,1.18-2.16A34.48,34.48,0,0,1,37.2,33a37.41,37.41,0,0,1-3.81.65c.44-.68.85-1.38,1.26-2.08Zm1.17-6.2c-.38-.72-.77-1.43-1.18-2.13s-.81-1.37-1.24-2a35.43,35.43,0,0,1,3.72.65A36.16,36.16,0,0,1,35.82,25.39Zm-8.36-9.13a37.06,37.06,0,0,1,2.4,2.91q-2.41-.12-4.83,0Q26.23,17.6,27.46,16.26Zm-9.41-5c1.36-.79,4.39.34,7.57,3.16.21.18.41.38.62.57a41,41,0,0,0-3.48,4.31,42,42,0,0,0-5.45.84c-.11-.41-.2-.83-.28-1.26-.77-3.92-.26-6.88,1-7.62Zm-2,21.38c-.34-.1-.67-.2-1-.32a16.5,16.5,0,0,1-5.11-2.53A3.63,3.63,0,0,1,8.42,27.4c0-1.49,2.56-3.38,6.26-4.67.46-.17.93-.31,1.4-.45a44.7,44.7,0,0,0,2,5.16A44.08,44.08,0,0,0,16.06,32.67Zm9.46,7.95a14.84,14.84,0,0,1-4.58,2.86,3.6,3.6,0,0,1-2.86.11c-1.29-.75-1.83-3.61-1.1-7.46.09-.46.19-.91.3-1.36a40.87,40.87,0,0,0,5.51.8A42.83,42.83,0,0,0,26.3,39.9q-.39.38-.78.72Zm2-2a37.59,37.59,0,0,1-2.45-2.95c.78,0,1.58,0,2.39,0s1.65,0,2.47,0A34.06,34.06,0,0,1,27.5,38.65Zm10.61,2.43a3.62,3.62,0,0,1-1.34,2.54c-1.29.75-4-.23-7-2.77-.34-.3-.68-.61-1-.94a40.77,40.77,0,0,0,3.42-4.34,39.74,39.74,0,0,0,5.53-.86c.08.34.16.67.22,1a15,15,0,0,1,.21,5.38Zm1.47-8.72c-.23.08-.45.15-.69.21a41,41,0,0,0-2.07-5.17,41.1,41.1,0,0,0,2-5.1c.42.12.83.25,1.22.38,3.78,1.3,6.43,3.23,6.43,4.7S43.63,31,39.58,32.36ZM27.44,31.15a3.72,3.72,0,1,0-3.72-3.72,3.72,3.72,0,0,0,3.72,3.72Z"/></g></g></svg>